<svg xmlns="http://www.w3.org/2000/svg" aria-label="SceneFab - AI 影视解说视频创作工具" role="img" viewBox="0 0 256 256"><defs><linearGradient id="bgGrad" x1="0%" x2="100%" y1="0%" y2="100%"><stop offset="0%" stop-color="#0f0c29"/><stop offset="50%" stop-color="#1a1a3e"/><stop offset="100%" stop-color="#24243e"/></linearGradient><linearGradient id="filmGrad" x1="0%" x2="100%" y1="0%" y2="0%"><stop offset="0%" stop-color="#ff8a5b"/><stop offset="100%" stop-color="#e63946"/></linearGradient><linearGradient id="aiGrad" x1="0%" x2="100%" y1="0%" y2="0%"><stop offset="0%" stop-color="#4cc9f0"/><stop offset="100%" stop-color="#7209b7"/></linearGradient><radialGradient id="discGrad" cx="50%" cy="50%" r="50%"><stop offset="0%" stop-color="#1a1a3e"/><stop offset="100%" stop-color="#0f0c29"/></radialGradient></defs><rect width="256" height="256" fill="url(#bgGrad)" rx="56" ry="56"/><g fill="#fff" opacity=".6"><circle cx="32" cy="36" r="1.5"/><circle cx="222" cy="48" r="2"/><circle cx="44" cy="218" r="1.5"/><circle cx="220" cy="210" r="2"/><circle cx="208" cy="32" r="1"/><circle cx="36" cy="220" r="1"/></g><g transform="rotate(-22 128 128)"><rect width="192" height="40" x="32" y="108" fill="url(#filmGrad)" rx="4"/><g fill="#0f0c29" opacity=".85"><rect width="8" height="6" x="42" y="114" rx="1"/><rect width="8" height="6" x="62" y="114" rx="1"/><rect width="8" height="6" x="82" y="114" rx="1"/><rect width="8" height="6" x="102" y="114" rx="1"/><rect width="8" height="6" x="122" y="114" rx="1"/><rect width="8" height="6" x="142" y="114" rx="1"/><rect width="8" height="6" x="162" y="114" rx="1"/><rect width="8" height="6" x="182" y="114" rx="1"/><rect width="8" height="6" x="202" y="114" rx="1"/></g><g fill="#0f0c29" opacity=".85"><rect width="8" height="6" x="42" y="136" rx="1"/><rect width="8" height="6" x="62" y="136" rx="1"/><rect width="8" height="6" x="82" y="136" rx="1"/><rect width="8" height="6" x="102" y="136" rx="1"/><rect width="8" height="6" x="122" y="136" rx="1"/><rect width="8" height="6" x="142" y="136" rx="1"/><rect width="8" height="6" x="162" y="136" rx="1"/><rect width="8" height="6" x="182" y="136" rx="1"/><rect width="8" height="6" x="202" y="136" rx="1"/></g></g><path fill="none" stroke="url(#aiGrad)" stroke-linecap="round" stroke-width="3.5" d="M 32 168 Q 64 152 96 168 T 160 168 T 224 168" opacity=".9"/><path fill="none" stroke="url(#aiGrad)" stroke-linecap="round" stroke-width="1.8" d="M 32 184 Q 64 176 96 184 T 160 184 T 224 184" opacity=".5"/><g transform="translate(128 128)"><circle r="42" fill="url(#discGrad)" opacity=".92"/><path fill="url(#aiGrad)" d="M -12 -18 L 18 0 L -12 18 Z"/></g></svg>