<svg xmlns="http://www.w3.org/2000/svg" aria-label="SceneFab — AI 影视解说视频创作工具" role="img" viewBox="0 0 512 160"><title>SceneFab</title><defs><linearGradient id="bgH" x1="0%" x2="100%" y1="0%" y2="100%"><stop offset="0%" stop-color="#050816"/><stop offset="100%" stop-color="#0f172a"/></linearGradient><linearGradient id="brandH" x1="0%" x2="100%" y1="0%" y2="100%"><stop offset="0%" stop-color="#22d3ee"/><stop offset="55%" stop-color="#06b6d4"/><stop offset="100%" stop-color="#a855f7"/></linearGradient><linearGradient id="hiH" x1="0%" x2="0%" y1="0%" y2="100%"><stop offset="0%" stop-color="#67e8f9"/><stop offset="100%" stop-color="#22d3ee"/></linearGradient><radialGradient id="coreH" cx="50%" cy="40%" r="60%"><stop offset="0%" stop-color="#22d3ee"/><stop offset="100%" stop-color="#7c3aed"/></radialGradient><filter id="glowH" width="200%" height="200%" x="-50%" y="-50%"><feGaussianBlur result="blur" stdDeviation="2.5"/><feMerge><feMergeNode in="blur"/><feMergeNode in="SourceGraphic"/></feMerge></filter></defs><g transform="translate(16 16)"><rect width="128" height="128" fill="url(#bgH)" rx="28"/><rect width="127" height="127" x=".5" y=".5" fill="none" stroke="url(#brandH)" stroke-width=".6" opacity=".3" rx="27.5"/><circle cx="64" cy="64" r="46" fill="none" stroke="url(#brandH)" stroke-dasharray="2 4" stroke-width="1.4" opacity=".55"/><circle cx="64" cy="64" r="34" fill="none" stroke="url(#brandH)" stroke-width=".8" opacity=".6"/><g fill="url(#hiH)"><circle cx="64" cy="18" r="1.4"/><circle cx="110" cy="64" r="1.4"/><circle cx="64" cy="110" r="1.4"/><circle cx="18" cy="64" r="1.4"/></g><g transform="translate(64 64)"><circle r="22" fill="#050816"/><circle r="22" fill="none" stroke="url(#brandH)" stroke-width=".8" opacity=".55"/><path fill="none" stroke="url(#hiH)" stroke-linecap="round" stroke-width="1.2" d="M -14 0 A 14 14 0 0 1 0 -14" opacity=".85"/><path fill="none" stroke="url(#hiH)" stroke-linecap="round" stroke-width="1.2" d="M 14 0 A 14 14 0 0 1 0 14" opacity=".85"/><path fill="url(#coreH)" d="M -5 -8 L 9 0 L -5 8 Z" filter="url(#glowH)"/></g><path fill="url(#hiH)" d="M 98 30 L 99.5 33 L 103 34.5 L 99.5 36 L 98 39 L 96.5 36 L 93 34.5 L 96.5 33 Z" opacity=".9"/><path fill="#a855f7" d="M 105 44 L 105.7 45.5 L 107.2 46.2 L 105.7 46.9 L 105 48.4 L 104.3 46.9 L 102.8 46.2 L 104.3 45.5 Z" opacity=".7"/></g><g><text x="0" y="78" fill="#f8fafc" font-family="Inter, 'SF Pro Display', 'Helvetica Neue', system-ui, -apple-system, 'PingFang SC', sans-serif" font-size="50" font-weight="800" letter-spacing="-1.8" transform="translate(168 0)">Scene<tspan fill="url(#brandH)">Fab</tspan></text><text x="2" y="108" fill="#94a3b8" font-family="'PingFang SC', 'Microsoft YaHei', 'Hiragino Sans GB', system-ui, sans-serif" font-size="14" font-weight="500" letter-spacing="2.4" transform="translate(168 0)">AI 影视解说视频创作工具</text></g></svg>