<svg xmlns="http://www.w3.org/2000/svg" aria-label="SceneFab application icon" role="img" viewBox="0 0 512 512"><title>SceneFab</title><defs><linearGradient id="bgApp" x1="0%" x2="100%" y1="0%" y2="100%"><stop offset="0%" stop-color="#020617"/><stop offset="100%" stop-color="#0f172a"/></linearGradient><linearGradient id="brandApp" x1="0%" x2="100%" y1="0%" y2="100%"><stop offset="0%" stop-color="#22d3ee"/><stop offset="55%" stop-color="#06b6d4"/><stop offset="100%" stop-color="#a855f7"/></linearGradient><linearGradient id="hiApp" x1="0%" x2="0%" y1="0%" y2="100%"><stop offset="0%" stop-color="#67e8f9"/><stop offset="100%" stop-color="#22d3ee"/></linearGradient><radialGradient id="coreApp" cx="50%" cy="40%" r="60%"><stop offset="0%" stop-color="#22d3ee"/><stop offset="100%" stop-color="#7c3aed"/></radialGradient><radialGradient id="coreGlowApp" cx="50%" cy="50%" r="50%"><stop offset="0%" stop-color="#22d3ee" stop-opacity=".35"/><stop offset="100%" stop-color="#22d3ee" stop-opacity="0"/></radialGradient><filter id="glowApp" width="200%" height="200%" x="-50%" y="-50%"><feGaussianBlur result="blur" stdDeviation="14"/><feMerge><feMergeNode in="blur"/><feMergeNode in="SourceGraphic"/></feMerge></filter><clipPath id="clipApp"><rect width="512" height="512" rx="112" ry="112"/></clipPath></defs><rect width="512" height="512" fill="url(#bgApp)" rx="112" ry="112"/><rect width="508" height="508" x="2" y="2" fill="none" stroke="url(#brandApp)" stroke-width="1.5" opacity=".25" rx="110" ry="110"/><circle cx="256" cy="256" r="240" fill="url(#coreGlowApp)"/><g clip-path="url(#clipApp)"><circle cx="256" cy="256" r="184" fill="none" stroke="url(#brandApp)" stroke-dasharray="4 9" stroke-width="3" opacity=".6"/><circle cx="256" cy="256" r="136" fill="none" stroke="url(#brandApp)" stroke-width="2.5" opacity=".65"/><g fill="url(#hiApp)"><circle cx="256" cy="72" r="4.5"/><circle cx="440" cy="256" r="4.5"/><circle cx="256" cy="440" r="4.5"/><circle cx="72" cy="256" r="4.5"/></g></g><g transform="translate(256 256)"><circle r="88" fill="#020617"/><circle r="88" fill="none" stroke="url(#brandApp)" stroke-width="2" opacity=".65"/><path fill="none" stroke="url(#hiApp)" stroke-linecap="round" stroke-width="3.5" d="M -56 0 A 56 56 0 0 1 0 -56" opacity=".9"/><path fill="none" stroke="url(#hiApp)" stroke-linecap="round" stroke-width="3.5" d="M 56 0 A 56 56 0 0 1 0 56" opacity=".9"/><path fill="none" stroke="url(#brandApp)" stroke-linecap="round" stroke-width="1.5" d="M -36 -36 A 51 51 0 0 1 36 -36" opacity=".4"/><g filter="url(#glowApp)"><path fill="url(#coreApp)" d="M -20 -32 L 36 0 L -20 32 Z"/></g></g><g fill="url(#hiApp)"><path d="M 392 120 L 398 134 L 412 140 L 398 146 L 392 160 L 386 146 L 372 140 L 386 134 Z" opacity=".95"/></g><g fill="#a855f7" opacity=".75"><path d="M 420 176 L 423 183 L 430 186 L 423 189 L 420 196 L 417 189 L 410 186 L 417 183 Z"/></g></svg>