<svg xmlns="http://www.w3.org/2000/svg" aria-label="SceneFab mark (light)" role="img" viewBox="0 0 256 256"><title>SceneFab</title><defs><linearGradient id="bgMarkLight" x1="0%" x2="100%" y1="0%" y2="100%"><stop offset="0%" stop-color="#fff"/><stop offset="100%" stop-color="#f1f5f9"/></linearGradient><linearGradient id="brandMarkLight" x1="0%" x2="100%" y1="0%" y2="100%"><stop offset="0%" stop-color="#0891b2"/><stop offset="55%" stop-color="#06b6d4"/><stop offset="100%" stop-color="#7c3aed"/></linearGradient><linearGradient id="hiMarkLight" x1="0%" x2="0%" y1="0%" y2="100%"><stop offset="0%" stop-color="#06b6d4"/><stop offset="100%" stop-color="#0891b2"/></linearGradient><radialGradient id="coreMarkLight" cx="50%" cy="40%" r="60%"><stop offset="0%" stop-color="#06b6d4"/><stop offset="100%" stop-color="#7c3aed"/></radialGradient><filter id="glowMarkLight" width="200%" height="200%" x="-50%" y="-50%"><feGaussianBlur result="blur" stdDeviation="6"/><feMerge><feMergeNode in="blur"/><feMergeNode in="SourceGraphic"/></feMerge></filter><clipPath id="clipMarkLight"><rect width="256" height="256" rx="56" ry="56"/></clipPath></defs><rect width="256" height="256" fill="url(#bgMarkLight)" rx="56" ry="56"/><rect width="254" height="254" x="1" y="1" fill="none" stroke="url(#brandMarkLight)" stroke-width="1" opacity=".35" rx="55" ry="55"/><g clip-path="url(#clipMarkLight)" opacity=".95"><circle cx="128" cy="128" r="92" fill="none" stroke="url(#brandMarkLight)" stroke-dasharray="3 6" stroke-width="2.5" opacity=".65"/><circle cx="128" cy="128" r="68" fill="none" stroke="url(#brandMarkLight)" stroke-width="1.5" opacity=".7"/><g fill="url(#hiMarkLight)"><circle cx="128" cy="36" r="2.5"/><circle cx="220" cy="128" r="2.5"/><circle cx="128" cy="220" r="2.5"/><circle cx="36" cy="128" r="2.5"/></g></g><g transform="translate(128 128)"><circle r="44" fill="#f8fafc"/><circle r="44" fill="none" stroke="url(#brandMarkLight)" stroke-width="1.5" opacity=".7"/><path fill="none" stroke="url(#hiMarkLight)" stroke-linecap="round" stroke-width="2" d="M -28 0 A 28 28 0 0 1 0 -28" opacity=".9"/><path fill="none" stroke="url(#hiMarkLight)" stroke-linecap="round" stroke-width="2" d="M 28 0 A 28 28 0 0 1 0 28" opacity=".9"/><path fill="url(#coreMarkLight)" d="M -10 -16 L 18 0 L -10 16 Z" filter="url(#glowMarkLight)"/></g><g fill="url(#hiMarkLight)" opacity=".95"><path d="M 196 60 L 199 67 L 206 70 L 199 73 L 196 80 L 193 73 L 186 70 L 193 67 Z"/></g><g fill="#7c3aed" opacity=".7"><path d="M 210 88 L 211.5 92 L 215.5 93.5 L 211.5 95 L 210 99 L 208.5 95 L 204.5 93.5 L 208.5 92 Z"/></g></svg>