<svg xmlns="http://www.w3.org/2000/svg" viewBox="0 0 24 24" fill="none" stroke="#06b6d4" stroke-width="2" stroke-linecap="round" stroke-linejoin="round">
  <!-- Microphone with sound waves - narration/voice -->
  <path d="M12 1a3 3 0 0 0-3 3v8a3 3 0 0 0 6 0V4a3 3 0 0 0-3-3z"/>
  <path d="M19 10v2a7 7 0 0 1-14 0v-2"/>
  <line x1="12" y1="19" x2="12" y2="23"/>
  <line x1="8" y1="23" x2="16" y2="23"/>
  <!-- Sound wave accents -->
  <path d="M1 12a2 2 0 0 0 2 2" opacity="0.4"/>
  <path d="M21 12a2 2 0 0 1-2 2" opacity="0.4"/>
</svg>
