<svg xmlns="http://www.w3.org/2000/svg" fill="none" viewBox="0 0 24 24"><defs><linearGradient id="brandCyan" x1="0%" x2="100%" y1="0%" y2="100%"><stop offset="0%" stop-color="#22d3ee"/><stop offset="100%" stop-color="#06b6d4"/></linearGradient></defs><path stroke="url(#brandCyan)" stroke-linejoin="round" stroke-width="1.75" d="M 12 2 C 6.5 2 2 6.5 2 12 C 2 17.5 6.5 22 12 22 C 13 22 13.5 21.3 13.5 20.5 C 13.5 20.1 13.35 19.75 13.1 19.45 C 12.85 19.15 12.7 18.8 12.7 18.4 C 12.7 17.6 13.4 17 14.25 17 H 16 C 19.5 17 22 14.5 22 11 C 22 5.5 17.5 2 12 2 Z"/><circle cx="7" cy="11.5" r="1.5" fill="url(#brandCyan)"/><circle cx="11.5" cy="7.5" r="1.5" fill="#a855f7"/><circle cx="16" cy="9.5" r="1.5" fill="url(#brandCyan)" opacity=".7"/></svg>